<?xml version="1.0" standalone="no"?><!DOCTYPE svg PUBLIC "-//W3C//DTD SVG 1.1//EN" "http://www.w3.org/Graphics/SVG/1.1/DTD/svg11.dtd"><svg t="1638169966301" class="icon" viewBox="0 0 1024 1024" version="1.1" xmlns="http://www.w3.org/2000/svg" p-id="53142" xmlns:xlink="http://www.w3.org/1999/xlink" width="200" height="200"><defs><style type="text/css"></style></defs><path d="M81.792 903.104h860.416c11.456 0 20.8 3.648 28.16 11.008a38.08 38.08 0 0 1 10.944 28.16 38.08 38.08 0 0 1-10.944 28.096 38.08 38.08 0 0 1-28.16 10.944H81.792a38.08 38.08 0 0 1-28.16-10.944 38.08 38.08 0 0 1-10.944-28.16c0-11.392 3.648-20.8 10.944-28.16a38.08 38.08 0 0 1 28.16-10.88z m469.312-310.4l288.448-288.512 56.256 55.04-387.456 387.456L120.96 359.232l54.976-55.04 296.96 297.024V42.688h78.272V592.64z" fill="#8c8c8c" p-id="53143"></path></svg>