<?xml version="1.0" standalone="no"?><!DOCTYPE svg PUBLIC "-//W3C//DTD SVG 1.1//EN" "http://www.w3.org/Graphics/SVG/1.1/DTD/svg11.dtd"><svg t="1638945406564" class="icon" viewBox="0 0 1024 1024" version="1.1" xmlns="http://www.w3.org/2000/svg" p-id="4849" xmlns:xlink="http://www.w3.org/1999/xlink" width="200" height="200"><defs><style type="text/css"></style></defs><path d="M395.6 254c-0.8-6.3-8.4-8.9-12.8-4.5l-41.1 41.6-125.9-127c-2.9-3-7.7-3-10.7 0l-39.9 40.3c-2.9 3-2.9 7.8 0 10.8l125.9 127.2-41.4 41.6c-4.4 4.5-1.8 12.2 4.4 13L405 414.9c4.8 0.6 8.9-3.5 8.4-8.5L395.6 254z m9.5 355.2l-150.9 17.9c-6.2 0.8-8.8 8.5-4.4 13l41.3 41.8-125.9 127c-2.9 3-2.9 7.8 0 10.8l39.9 40.3c2.9 3 7.7 3 10.7 0l125.9-127.1 41.1 41.6c4.4 4.5 12 1.8 12.8-4.5l17.8-152.3c0.6-5-3.5-9.2-8.3-8.5z m208.8-194.4l150.9-17.9c6.2-0.8 8.8-8.5 4.4-13l-41.3-41.7 125.9-127.1c2.9-3 2.9-7.8 0-10.8L813.9 164c-2.9-3-7.7-3-10.7 0L677.4 291l-41.1-41.6c-4.4-4.5-12-1.8-12.8 4.5l-17.8 152.3c-0.6 5.1 3.4 9.3 8.2 8.6zM728 681.7l41.3-41.8c4.4-4.5 1.8-12.2-4.4-13L614.1 609c-4.8-0.6-8.9 3.5-8.4 8.5L623.4 770c0.8 6.3 8.4 8.9 12.8 4.5l41.1-41.6L803.2 860c2.9 3 7.7 3 10.7 0l39.9-40.3c2.9-3 2.9-7.8 0-10.8L728 681.7z" p-id="4850"></path></svg>