<?xml version="1.0" standalone="no"?><!DOCTYPE svg PUBLIC "-//W3C//DTD SVG 1.1//EN" "http://www.w3.org/Graphics/SVG/1.1/DTD/svg11.dtd"><svg t="1639709318632" class="icon" viewBox="0 0 1024 1024" version="1.1" xmlns="http://www.w3.org/2000/svg" p-id="2580" xmlns:xlink="http://www.w3.org/1999/xlink" width="200" height="200"><defs><style type="text/css"></style></defs><path d="M835.9 254c12.5 0 24.2 5.1 32.9 14.3l0.3 0.3c17.6 18.9 17.2 49-1 67.2C732 474.9 470.8 741.4 455 754.7l-0.3 0.3-0.3 0.3c-9.2 9.4-21.1 14.6-33.6 14.6-11.1 0-21.4-4.3-28.9-12.1l-238-244.7c-16.7-17.2-15.6-46.4 2.5-65 9.2-9.4 21.1-14.6 33.5-14.6 11.1 0 21.4 4.3 28.9 12.1l194.7 200.2 6.6 6.7 6.6-6.7 377.1-378.5c8.7-8.5 20.1-13.3 32.1-13.3" p-id="2581" fill="#ffffff"></path></svg>